C:\Users\r0593348\3dpredictsim\Results\batch_windlass\Pog_s1_tmt_bCst_d00_k500_WL40_ig24_act_TTC_GRF.mot
nRows=12
nColumns=19

name C:\Users\r0593348\3dpredictsim\Results\batch_windlass\Pog_s1_tmt_bCst_d00_k500_WL40_ig24_act_TTC_GRF.mot
datacolumns 19
datarows 12
range 0.0000000000 0.1336603656
endheader
time 	ground_force_vx	ground_force_vy	ground_force_vz	ground_force_px	ground_force_py	ground_force_pz	1_ground_force_vx	1_ground_force_vy	1_ground_force_vz	1_ground_force_px	1_ground_force_py	1_ground_force_pz	ground_torque_x	ground_torque_y	ground_torque_z	1_ground_torque_x	1_ground_torque_y	1_ground_torque_z
        0.0000000000	      -60.8222336586	       49.0476648278	       19.6861895404	        0.1637621123	        0.0000000000	        0.0557349231	       38.3464580529	      260.7857816186	      -11.7373443872	       -0.3564771014	        0.0000000000	       -0.0138341748	        0.0000000000	        0.0000000000	        0.0000000000	        0.0000000000	        0.0000000000	        0.0000000000	
        0.0121509423	     -133.9888670079	      147.7706694474	       66.2279505238	        0.1716999204	        0.0000000000	        0.0536069810	       26.4165805220	      219.0007894364	      -16.8181979100	       -0.3529224697	        0.0000000000	       -0.0114553333	        0.0000000000	        0.0000000000	        0.0000000000	        0.0000000000	        0.0000000000	        0.0000000000	
        0.0243018847	      -73.4087194837	      357.9566357347	       16.8802026805	        0.1782824399	        0.0000000000	        0.0514886599	       22.9809382114	      179.4677874523	      -14.7185285792	       -0.3528434719	        0.0000000000	       -0.0114326060	        0.0000000000	        0.0000000000	        0.0000000000	        0.0000000000	        0.0000000000	        0.0000000000	
        0.0364528270	      -69.9695831231	      636.3457545171	      -14.9903193937	        0.1875267069	        0.0000000000	        0.0525123698	       11.8733409327	      122.6532868451	      -10.1225753090	       -0.3529624450	        0.0000000000	       -0.0112333530	        0.0000000000	        0.0000000000	        0.0000000000	        0.0000000000	        0.0000000000	        0.0000000000	
        0.0486037693	     -111.4684041215	      870.3158842603	      -28.7256156755	        0.1971248341	        0.0000000000	        0.0542141607	      -12.7641410445	       58.1129095914	       -6.7025358390	       -0.3554581026	        0.0000000000	       -0.0113186740	        0.0000000000	        0.0000000000	        0.0000000000	        0.0000000000	        0.0000000000	        0.0000000000	
        0.0607547116	     -137.9711306120	      948.6947852828	      -31.8335687490	        0.2040277023	        0.0000000000	        0.0553516337	      -14.6503324295	       13.8942834187	        1.3043810701	       -0.3580267647	        0.0000000000	       -0.0095963262	        0.0000000000	        0.0000000000	        0.0000000000	        0.0000000000	        0.0000000000	        0.0000000000	
        0.0729056540	     -142.3831120520	      943.6388465004	      -28.2161309900	        0.2096595161	        0.0000000000	        0.0559925862	       -7.7294935392	        6.2132885217	        1.0020643050	        0.0000000000	        0.0000000000	        0.0000000000	        0.0000000000	        0.0000000000	        0.0000000000	        0.0000000000	        0.0000000000	        0.0000000000	
        0.0850565963	     -135.6311662832	      904.6052402480	      -23.1961469446	        0.2150307173	        0.0000000000	        0.0559003461	       -7.6973166856	        5.3064077998	        0.9570341713	        0.0000000000	        0.0000000000	        0.0000000000	        0.0000000000	        0.0000000000	        0.0000000000	        0.0000000000	        0.0000000000	        0.0000000000	
        0.0972075386	     -120.7619789202	      859.4061945766	      -21.7081518541	        0.2213750388	        0.0000000000	        0.0552971668	       -1.5212303287	        0.9658661301	        0.1759583792	        0.0000000000	        0.0000000000	        0.0000000000	        0.0000000000	        0.0000000000	        0.0000000000	        0.0000000000	        0.0000000000	        0.0000000000	
        0.1093584810	     -104.7963351157	      802.5817065224	      -21.3061796690	        0.2273124609	        0.0000000000	        0.0546412379	       -1.3171890719	        0.7684280452	        0.1361296578	        0.0000000000	        0.0000000000	        0.0000000000	        0.0000000000	        0.0000000000	        0.0000000000	        0.0000000000	        0.0000000000	        0.0000000000	
        0.1215094233	      -90.2352978455	      747.8741360100	      -21.3710272211	        0.2322602532	        0.0000000000	        0.0540843837	       -0.7272347306	        0.4032973400	        0.0707287615	        0.0000000000	        0.0000000000	        0.0000000000	        0.0000000000	        0.0000000000	        0.0000000000	        0.0000000000	        0.0000000000	        0.0000000000	
        0.1336603656	      -77.5229595549	      702.2728239678	      -21.6421625017	        0.2366875325	        0.0000000000	        0.0536589964	       -0.5341788865	        0.2877777521	        0.0484651766	        0.0000000000	        0.0000000000	        0.0000000000	        0.0000000000	        0.0000000000	        0.0000000000	        0.0000000000	        0.0000000000	        0.0000000000	
